<svg xmlns="http://www.w3.org/2000/svg" viewBox="0 0 1200 630">
  <defs>
    <linearGradient id="bg" x1="0" y1="0" x2="1" y2="1">
      <stop offset="0" stop-color="#0a0a0a"/>
      <stop offset="1" stop-color="#0f1a2b"/>
    </linearGradient>
    <linearGradient id="ax" x1="0" y1="0" x2="1" y2="0">
      <stop offset="0" stop-color="#4a9eff"/>
      <stop offset="1" stop-color="#8ac6ff"/>
    </linearGradient>
  </defs>
  <rect width="1200" height="630" fill="url(#bg)"/>

  <g transform="translate(80,80)" font-family="ui-monospace, 'JetBrains Mono', monospace">
    <text x="0" y="24" fill="#666" font-size="20" letter-spacing="4">// LAKEHOUSE RELIABILITY</text>

    <g transform="translate(0,80)" stroke="#4a9eff" stroke-width="6" fill="none" stroke-linecap="round">
      <circle cx="42" cy="42" r="36"/>
      <line x1="42" y1="6" x2="42" y2="78"/>
      <line x1="6" y1="42" x2="78" y2="42"/>
    </g>
    <circle cx="42" cy="122" r="8" fill="#4a9eff"/>

    <g transform="translate(105,90)">
      <text x="0" y="26" fill="#fff" font-weight="700" font-size="52" letter-spacing="-2">iceberg-sentry</text>
      <text x="0" y="72" fill="#888" font-size="24">Iceberg-native diagnostics for Apache Iceberg.</text>
      <text x="0" y="106" fill="#888" font-size="24">Health, delete amplification, orphans, PII, cost.</text>
      <text x="0" y="140" fill="#888" font-size="24">CI-native · &lt; 20MB binary · Apache 2.0</text>
    </g>

    <g transform="translate(0,320)" font-size="22">
      <rect x="0" y="0" width="1040" height="150" rx="10" fill="#0f0f0f" stroke="#1f1f1f"/>
      <text x="20" y="34" fill="#4a9eff">$</text>
      <text x="42" y="34" fill="#fff">iceberg-sentry audit --catalog rest --table finance.transactions</text>
      <text x="20" y="68" fill="#fff">  Score: 61/100  </text>
      <text x="230" y="68" fill="#ef4444">CRITICAL</text>
      <text x="20" y="102" fill="#ef4444">  [CRITICAL] </text>
      <text x="180" y="102" fill="#fff">Delete File Amplification  12/20   1,842 delete files</text>
      <text x="20" y="130" fill="#f59e0b">  [WARNING]  </text>
      <text x="180" y="130" fill="#fff">Small Files                12/20   68% files &lt; 64MB</text>
    </g>

    <text x="0" y="510" fill="#666" font-size="20" letter-spacing="2">icebergsentry.io</text>
  </g>
</svg>
